<svg xmlns="http://www.w3.org/2000/svg" viewBox="0 0 480 420"><defs><linearGradient id="g" x2="1" y2="1"><stop stop-color="#98c063"/><stop offset="1" stop-color="#344b2e"/></linearGradient></defs><rect width="480" height="420" rx="12" fill="#121c14"/><g fill="none" stroke="#334933"><path d="M0 84h480M0 168h480M0 252h480M0 336h480M96 0v420M192 0v420M288 0v420M384 0v420"/></g><g transform="translate(240 190) rotate(-12)"><rect x="-146" y="-92" width="300" height="222" rx="12" fill="#243725" stroke="#52634b"/><rect x="-164" y="-120" width="300" height="222" rx="12" fill="url(#g)" stroke="#bddb98"/><path d="M-144-78H116" stroke="#d8eabd"/><circle cx="-142" cy="-99" r="3" fill="#f0ffda"/><circle cx="-128" cy="-99" r="3" fill="#f0ffda"/><path d="M-136-48h133M-136-24h102M-136 0h115" stroke="#d3edb4" stroke-width="10"/><rect x="-138" y="33" width="85" height="30" rx="5" fill="#162a15"/><rect x="26" y="-51" width="82" height="120" rx="7" fill="#213a21"/><path d="m42 34 50-54m-41 0h41v41" stroke="#c4f386" stroke-width="5" fill="none"/></g></svg>
